<?xml version="1.0"?>
<svg xmlns="http://www.w3.org/2000/svg" xmlns:xlink="http://www.w3.org/1999/xlink" xmlns:svgjs="http://svgjs.com/svgjs" version="1.1" width="512" height="512" x="0" y="0" viewBox="0 0 480 480" style="enable-background:new 0 0 512 512" xml:space="preserve" class=""><g>
<g xmlns="http://www.w3.org/2000/svg">
	<g>
		<path d="M477.656,226.344l-16-16c-1.5-1.5-3.534-2.344-5.656-2.344h-24c-4.418,0-8,3.582-8,8v40h-16v-56c0-4.418-3.582-8-8-8    h-51.72l-29.6-44.44c-1.489-2.232-3.997-3.568-6.68-3.56h-48v-16h56c4.418,0,8-3.582,8-8V88c0-4.418-3.582-8-8-8H160    c-4.418,0-8,3.582-8,8v32c0,4.418,3.582,8,8,8h56v16h-48c-2.674,0-5.172,1.335-6.656,3.56L131.72,192H88c-4.418,0-8,3.582-8,8v48    H64v-48c0-4.418-3.582-8-8-8H24c-2.674,0-5.172,1.335-6.656,3.56l-16,24C0.47,220.876,0.003,222.42,0,224v24    c0.003,1.58,0.47,3.124,1.344,4.44L16,274.4V344c0,4.418,3.582,8,8,8h32c4.418,0,8-3.582,8-8v-48h16v48c0,4.418,3.582,8,8,8h43.72    l29.6,44.44c1.489,2.232,3.997,3.568,6.68,3.56h232c4.418,0,8-3.582,8-8v-72h16v56c0,4.418,3.582,8,8,8h24    c2.122,0,4.156-0.844,5.656-2.344l16-16c1.5-1.5,2.344-3.534,2.344-5.656V232C480,229.878,479.156,227.844,477.656,226.344z     M48,256v80H32v-64c-0.003-1.58-0.47-3.124-1.344-4.44L16,245.6v-19.2L28.28,208H48V256z M80,280H64v-16h16V280z M168,112V96h144    v16H168z M248,128v16h-16v-16H248z M360,384H172.28l-29.6-44.44c-1.489-2.232-3.997-3.568-6.68-3.56H96V208h40    c2.674,0,5.172-1.335,6.656-3.56L172.28,160h135.44l29.6,44.44c1.489,2.232,3.997,3.568,6.68,3.56h16V384z M392,264v120h-16V208    h16V264z M424,304h-16v-32h16V304z M464,356.688L452.688,368H440V224h12.688L464,235.312V356.688z" fill="#a8a8b3" data-original="#000000" style="" class=""/>
	</g>
</g>
<g xmlns="http://www.w3.org/2000/svg">
	<g>
		<path d="M309.897,258.593C308.381,256.94,306.242,256,304,256h-38.024l13.832-62.264c0.958-4.313-1.761-8.586-6.074-9.545    c-2.55-0.567-5.216,0.147-7.142,1.913l-96,88c-3.256,2.986-3.475,8.047-0.489,11.303C171.619,287.06,173.758,288,176,288h38.024    l-13.832,62.264c-0.958,4.313,1.761,8.586,6.074,9.545c2.55,0.567,5.216-0.147,7.142-1.913l96-88    C312.664,266.91,312.883,261.849,309.897,258.593z M221.32,328.936l10.488-47.2c0.959-4.313-1.76-8.587-6.073-9.545    c-0.57-0.127-1.151-0.191-1.735-0.191h-27.432l62.112-56.936l-10.488,47.2c-0.959,4.313,1.76,8.587,6.073,9.545    c0.57,0.127,1.151,0.19,1.735,0.191h27.432L221.32,328.936z" fill="#a8a8b3" data-original="#000000" style="" class=""/>
	</g>
</g>
<g xmlns="http://www.w3.org/2000/svg">
	<g>
		<rect x="112" y="256" width="16" height="64" fill="#a8a8b3" data-original="#000000" style="" class=""/>
	</g>
</g>
<g xmlns="http://www.w3.org/2000/svg">
	<g>
		<rect x="112" y="224" width="16" height="16" fill="#a8a8b3" data-original="#000000" style="" class=""/>
	</g>
</g>
<g xmlns="http://www.w3.org/2000/svg">
</g>
<g xmlns="http://www.w3.org/2000/svg">
</g>
<g xmlns="http://www.w3.org/2000/svg">
</g>
<g xmlns="http://www.w3.org/2000/svg">
</g>
<g xmlns="http://www.w3.org/2000/svg">
</g>
<g xmlns="http://www.w3.org/2000/svg">
</g>
<g xmlns="http://www.w3.org/2000/svg">
</g>
<g xmlns="http://www.w3.org/2000/svg">
</g>
<g xmlns="http://www.w3.org/2000/svg">
</g>
<g xmlns="http://www.w3.org/2000/svg">
</g>
<g xmlns="http://www.w3.org/2000/svg">
</g>
<g xmlns="http://www.w3.org/2000/svg">
</g>
<g xmlns="http://www.w3.org/2000/svg">
</g>
<g xmlns="http://www.w3.org/2000/svg">
</g>
<g xmlns="http://www.w3.org/2000/svg">
</g>
</g></svg>
