<svg width="165" height="32" viewBox="0 0 165 32" fill="none" xmlns="http://www.w3.org/2000/svg">
<path d="M98.2247 25.3133H95.821C95.4569 25.3133 95.0324 25.2909 94.5501 25.2502C94.0717 25.2081 93.6328 25.0951 93.2399 24.9164C92.8469 24.7324 92.5381 24.4472 92.3173 24.0516C92.0952 23.6626 92.0636 23.1014 92.2253 22.3707C92.4632 21.2813 93.0375 20.4901 93.9416 19.9999C94.8484 19.511 95.9879 19.2666 97.3599 19.2666C97.6661 19.2666 99.4942 19.2679 99.4942 19.2679L98.2247 25.3133ZM103.439 27.9864L106.01 16.031C106.686 12.9505 106.361 10.9687 105.03 9.56772C103.701 8.16677 101.577 7.716 98.6649 7.716H94.3714H94.3701H92.6853C92.0479 7.75279 91.7311 8.07478 91.5787 8.63726L90.9952 11.3879C90.7507 12.3394 91.5064 12.2881 91.5064 12.2881H92.7536H95.5989H98.3824C98.3824 12.2881 100.025 12.2132 100.43 13.5103C100.564 13.9296 100.553 14.4776 100.406 15.1492L100.289 15.5145C100.289 15.5145 98.4481 15.5277 97.6372 15.5277C96.5149 15.5277 95.3676 15.6459 94.1953 15.8838C93.0243 16.123 91.9217 16.5146 90.894 17.0587C89.8636 17.6067 88.9608 18.3322 88.1893 19.2429C87.4126 20.1537 86.8764 21.2813 86.5821 22.6244C86.2864 23.9688 86.2653 25.1017 86.5256 26.0282C86.7871 26.9508 87.276 27.7051 88.0027 28.2939C88.7282 28.8827 89.6547 29.3019 90.7902 29.5542C91.9256 29.8052 93.207 29.9314 94.6355 29.9314H100.94C103.124 29.9314 103.439 27.9864 103.439 27.9864Z" fill="white"/>
<path d="M156.72 25.3133H154.314C153.952 25.3133 153.526 25.2909 153.048 25.2502C152.566 25.2081 152.128 25.0951 151.734 24.9164C151.338 24.7324 151.035 24.4472 150.811 24.0516C150.588 23.6626 150.558 23.1014 150.719 22.3707C150.957 21.2813 151.532 20.4901 152.436 19.9999C153.342 19.511 154.482 19.2666 155.854 19.2666C156.163 19.2666 157.988 19.2679 157.988 19.2679L156.72 25.3133ZM161.936 27.9864L164.503 16.031C165.181 12.9505 164.854 10.9687 163.524 9.56772C162.192 8.16677 160.073 7.716 157.16 7.716H152.867H152.865H151.181C150.543 7.75279 150.224 8.07478 150.073 8.63726L149.489 11.3879C149.245 12.3394 150.003 12.2881 150.003 12.2881H151.245H154.093H156.875C156.875 12.2881 158.522 12.2132 158.924 13.5103C159.058 13.9296 159.05 14.4776 158.902 15.1492L158.785 15.5145C158.785 15.5145 156.942 15.5277 156.13 15.5277C155.009 15.5277 153.863 15.6459 152.689 15.8838C151.518 16.123 150.416 16.5146 149.387 17.0587C148.358 17.6067 147.457 18.3322 146.682 19.2429C145.908 20.1537 145.374 21.2813 145.077 22.6244C144.783 23.9688 144.762 25.1017 145.021 26.0282C145.28 26.9508 145.773 27.7051 146.498 28.2939C147.224 28.8827 148.151 29.3019 149.284 29.5542C150.42 29.8052 151.702 29.9314 153.131 29.9314H159.435C161.617 29.9314 161.936 27.9864 161.936 27.9864Z" fill="white"/>
<path d="M127.167 5.65541C127.079 6.0707 126.669 6.40845 126.255 6.40845H121.932C121.521 6.40845 121.257 6.0707 121.344 5.65541L122.306 1.216C122.395 0.800714 122.805 0.462962 123.216 0.462962H127.537C127.951 0.462962 128.217 0.800714 128.128 1.216L127.167 5.65541Z" fill="white"/>
<path d="M116.227 29.9646L120.764 8.4891C120.851 8.08038 121.257 7.74788 121.664 7.74788H126.026C126.436 7.74788 126.695 8.08038 126.604 8.4891L122.396 28.0419C122.295 28.4822 122.223 29.9646 120.555 29.9646H116.227Z" fill="white"/>
<path d="M146.543 7.74764H133.891H133.889H131.302H131.247C130.607 7.78575 130.289 8.10773 130.136 8.67416L129.536 11.4222C129.289 12.3737 130.047 12.3224 130.047 12.3224H130.536H138.813C138.813 12.3224 131.882 19.8883 128.139 23.7587C127.087 24.8455 126.487 25.8469 126.325 26.4778L125.562 29.9644H140.969C141.102 29.9644 141.703 29.9144 141.895 29.0654L142.514 26.3174C142.629 25.7681 142.476 25.45 141.897 25.4001L141.899 25.3948H141.851H139.8H139.799H133.091C133.091 25.3948 145.262 12.3579 145.618 11.9702C146.17 11.363 146.543 7.74764 146.543 7.74764Z" fill="white"/>
<path d="M87.3395 7.74375C87.9177 7.74375 88.0058 8.13144 87.8626 8.71233L87.2317 11.5812C87.0688 12.3606 86.5168 12.3185 86.5168 12.3185H80.0943C78.3227 12.3185 76.6681 13.6406 75.9847 17.0392L75.3381 20.2458C74.6547 23.6444 76.425 25.299 78.1939 25.299H83.4416C83.4416 25.299 84.2866 25.2832 84.1433 25.9495L83.4915 29.0248C83.3758 29.5964 83.0907 29.9053 82.7279 29.9053H76.768C71.5664 29.9053 68.3045 26.4686 69.5582 20.2458L70.2022 17.0392C71.4533 10.8164 74.062 7.6741 81.1995 7.74375H87.3395Z" fill="white"/>
<path d="M61.6841 17.401L61.0388 20.6077C60.4106 23.7329 58.9584 25.0983 57.3525 25.3007H54.8502C53.0813 25.3007 51.3124 23.6435 51.9958 20.2463L52.6437 17.0383C53.2719 13.9131 54.7227 12.5463 56.3274 12.3492H58.831C60.5986 12.3492 62.3662 14.0038 61.6841 17.401ZM64.0957 8.5301C63.018 8.01756 61.7367 7.75077 60.3108 7.7442H57.8558C56.4798 7.73238 55.2773 7.84014 54.2168 8.06224C49.7655 9.00059 47.8704 12.0154 46.8585 17.0383L46.2145 20.2463C45.3104 24.7356 46.7547 27.7728 49.5829 29.1172C50.6618 29.6297 51.9432 29.8965 53.3704 29.9018H55.824C57.1987 29.9162 58.4065 29.8098 59.4631 29.5877C63.917 28.648 65.8068 25.6332 66.8214 20.6077L67.464 17.401C68.3682 12.913 66.9239 9.87454 64.0957 8.5301Z" fill="white"/>
<path d="M117.992 0.463217H113.676C113.259 0.463217 112.851 0.799656 112.761 1.21626L112.437 2.72629H112.434L106.959 28.0498C106.959 28.0498 106.322 29.9646 108.222 29.9646H112.476L117.608 5.70429C117.612 5.6872 117.619 5.67274 117.622 5.65566L118.582 1.21626C118.672 0.799656 118.41 0.463217 117.992 0.463217Z" fill="white"/>
<path d="M37.9955 25.2056C34.6535 25.2056 35.4026 22.3722 35.4026 22.3722L39.315 3.72221L39.8591 1.21601C39.9471 0.800726 39.6856 0.462973 39.2677 0.462973H34.9492C34.5352 0.462973 34.1239 0.800726 34.0371 1.21601L33.451 3.86415L29.4992 22.3919C28.9078 25.0808 29.0707 26.9916 30.1076 28.1823C31.1498 29.373 32.7479 29.9644 34.9045 29.9644H40.1771H44.7348H44.7585V29.963C45.112 29.9499 45.6731 29.9368 45.4997 29.2297C45.4997 29.2297 43.9476 27.0692 43.3641 25.2056H37.9955Z" fill="white"/>
<path d="M13.6676 7.54306C13.6676 1.98305 28.5162 1.90735e-06 28.5162 1.90735e-06C28.5162 1.90735e-06 24.6643 1.90735e-06 17.4016 0.169899C7.28273 0.405561 0 3.19516 0 9.70696C0 15.9886 9.03194 20.6836 13.3835 25.3923C15.8306 27.6804 17.2208 30.4508 17.5807 32C18.4448 31.04 19.7044 29.3776 19.5875 27.2173C19.4194 24.1327 17.1578 21.3641 11.6635 16.6435C6.94659 12.5897 6.06788 10.9958 5.94457 9.00637C5.49882 1.85334 18.981 1.12991 18.981 1.12991C18.981 1.12991 7.43619 2.56216 7.80065 8.19799C7.9952 11.1913 10.6039 13.2127 15.2377 16.7193C22.1186 21.9258 21.7678 25.7467 21.7678 25.7467C21.7678 25.7467 23.9381 22.8009 23.1663 19.3326C22.0638 14.3673 13.6676 11.4525 13.6676 7.54306Z" fill="#D3D800"/>
</svg>
