<svg width="268" height="52" viewBox="0 0 268 52" fill="none" xmlns="http://www.w3.org/2000/svg">
<path d="M159.615 41.134H155.709C155.118 41.134 154.428 41.0977 153.644 41.0315C152.867 40.9631 152.153 40.7795 151.515 40.489C150.876 40.19 150.374 39.7266 150.016 39.0838C149.655 38.4517 149.603 37.5398 149.866 36.3524C150.253 34.582 151.186 33.2963 152.655 32.4998C154.129 31.7053 155.98 31.3081 158.21 31.3081C158.707 31.3081 161.678 31.3102 161.678 31.3102L159.615 41.134ZM168.089 45.4778L172.266 26.0503C173.364 21.0445 172.837 17.824 170.673 15.5474C168.514 13.2709 165.063 12.5384 160.331 12.5384H153.354H153.351H150.614C149.578 12.5982 149.063 13.1214 148.815 14.0355L147.867 18.5052C147.47 20.0514 148.698 19.9681 148.698 19.9681H150.725H155.348H159.871C159.871 19.9681 162.541 19.8464 163.199 21.9542C163.416 22.6355 163.399 23.526 163.16 24.6173L162.97 25.211C162.97 25.211 159.978 25.2324 158.66 25.2324C156.837 25.2324 154.972 25.4246 153.067 25.8111C151.165 26.1998 149.373 26.8362 147.703 27.7203C146.028 28.6109 144.561 29.7897 143.308 31.2697C142.046 32.7496 141.174 34.582 140.696 36.7645C140.215 38.9493 140.181 40.7901 140.604 42.2957C141.029 43.7949 141.823 45.0207 143.004 45.9775C144.183 46.9342 145.689 47.6155 147.534 48.0255C149.379 48.4334 151.461 48.6384 153.783 48.6384H164.027C167.577 48.6384 168.089 45.4778 168.089 45.4778" fill="#00984A"/>
<path d="M254.67 41.134H250.76C250.173 41.134 249.481 41.0977 248.703 41.0315C247.919 40.9631 247.208 40.7795 246.568 40.489C245.925 40.19 245.432 39.7266 245.068 39.0838C244.705 38.4517 244.656 37.5398 244.919 36.3524C245.306 34.582 246.239 33.2963 247.708 32.4998C249.182 31.7053 251.033 31.3081 253.263 31.3081C253.765 31.3081 256.731 31.3102 256.731 31.3102L254.67 41.134ZM263.146 45.4778L267.317 26.0503C268.419 21.0445 267.887 17.824 265.726 15.5474C263.563 13.2709 260.118 12.5384 255.385 12.5384H248.409H248.406H245.669C244.633 12.5982 244.114 13.1214 243.868 14.0355L242.92 18.5052C242.523 20.0514 243.755 19.9681 243.755 19.9681H245.773H250.401H254.922C254.922 19.9681 257.598 19.8464 258.251 21.9542C258.469 22.6355 258.456 23.526 258.215 24.6173L258.025 25.211C258.025 25.211 255.031 25.2324 253.711 25.2324C251.89 25.2324 250.027 25.4246 248.12 25.8111C246.217 26.1998 244.426 26.8362 242.753 27.7203C241.081 28.6109 239.618 29.7897 238.358 31.2697C237.101 32.7496 236.234 34.582 235.751 36.7645C235.273 38.9493 235.238 40.7901 235.659 42.2957C236.08 43.7949 236.881 45.0207 238.059 45.9775C239.238 46.9342 240.746 47.6155 242.587 48.0255C244.432 48.4334 246.516 48.6384 248.838 48.6384H259.082C262.627 48.6384 263.146 45.4778 263.146 45.4778" fill="#00984A"/>
<path d="M206.646 9.18988C206.503 9.86473 205.837 10.4136 205.164 10.4136H198.14C197.472 10.4136 197.042 9.86473 197.183 9.18988L198.747 1.97586C198.892 1.30101 199.558 0.752161 200.227 0.752161H207.248C207.921 0.752161 208.353 1.30101 208.207 1.97586L206.646 9.18988Z" fill="#00984A"/>
<path d="M188.869 48.6924L196.241 13.7947C196.382 13.1305 197.042 12.5902 197.704 12.5902H204.792C205.459 12.5902 205.879 13.1305 205.732 13.7947L198.894 45.568C198.729 46.2834 198.612 48.6924 195.902 48.6924H188.869Z" fill="#00984A"/>
<path d="M238.132 12.5897H217.573H217.569H213.366H213.276C212.236 12.6517 211.72 13.1749 211.472 14.0953L210.496 18.5608C210.094 20.107 211.327 20.0237 211.327 20.0237H212.121H225.571C225.571 20.0237 214.308 32.3183 208.226 38.6076C206.517 40.3738 205.541 42.0011 205.279 43.0262L204.038 48.6919H229.075C229.291 48.6919 230.267 48.6107 230.579 47.2312L231.585 42.7656C231.773 41.873 231.523 41.3561 230.583 41.275L230.585 41.2664H230.508H227.175H227.173H216.273C216.273 41.2664 236.05 20.0814 236.629 19.4514C237.526 18.4647 238.132 12.5897 238.132 12.5897Z" fill="#00984A"/>
<path d="M141.927 12.5835C142.866 12.5835 143.009 13.2135 142.777 14.1574L141.752 18.8194C141.487 20.0858 140.59 20.0175 140.59 20.0175H130.153C127.274 20.0175 124.586 22.1659 123.475 27.6885L122.425 32.8994C121.314 38.422 124.191 41.1107 127.065 41.1107H135.593C135.593 41.1107 136.966 41.0851 136.733 42.1678L135.674 47.1651C135.486 48.0941 135.022 48.5959 134.433 48.5959H124.748C116.295 48.5959 110.995 43.0114 113.032 32.8994L114.079 27.6885C116.112 17.5765 120.351 12.4703 131.949 12.5835H141.927Z" fill="#00984A"/>
<path d="M100.237 28.2764L99.1881 33.4873C98.1673 38.5657 95.8075 40.7846 93.1978 41.1135H89.1316C86.2571 41.1135 83.3826 38.4205 84.4931 32.9L85.546 27.687C86.5668 22.6086 88.9245 20.3876 91.532 20.0672H95.6003C98.4727 20.0672 101.345 22.7559 100.237 28.2764ZM104.156 13.8612C102.404 13.0283 100.322 12.5948 98.005 12.5841H94.0157C91.7798 12.5649 89.8257 12.74 88.1023 13.1009C80.869 14.6257 77.7895 19.5248 76.1451 27.687L75.0987 32.9C73.6294 40.1952 75.9764 45.1305 80.5722 47.3152C82.3255 48.1481 84.4077 48.5816 86.727 48.5902H90.7141C92.9479 48.6137 94.9105 48.4407 96.6276 48.0798C103.865 46.5528 106.936 41.6538 108.585 33.4873L109.629 28.2764C111.098 20.9834 108.751 16.0459 104.156 13.8612Z" fill="#00984A"/>
<path d="M191.737 0.752641H184.723C184.046 0.752641 183.382 1.29935 183.237 1.97633L182.709 4.43013H182.705L173.808 45.5808C173.808 45.5808 172.773 48.6924 175.861 48.6924H182.774L191.113 9.26938C191.119 9.24162 191.13 9.21812 191.137 9.19036L192.695 1.97633C192.843 1.29935 192.416 0.752641 191.737 0.752641Z" fill="#00984A"/>
<path d="M61.7428 40.9589C56.312 40.9589 57.5293 36.3546 57.5293 36.3546L63.8869 6.04842L64.7711 1.97585C64.9141 1.301 64.4892 0.752153 63.81 0.752153H56.7925C56.1198 0.752153 55.4513 1.301 55.3104 1.97585L54.3579 6.27906L47.9362 36.3866C46.9752 40.756 47.24 43.8612 48.925 45.796C50.6185 47.7309 53.2154 48.6919 56.7199 48.6919H65.2879H72.6941H72.7325V48.6898C73.307 48.6684 74.2189 48.647 73.937 47.4981C73.937 47.4981 71.4149 43.9872 70.4667 40.9589H61.7428Z" fill="#00984A"/>
<path d="M22.2098 12.2575C22.2098 3.22245 46.3388 -1.76841e-06 46.3388 -1.76841e-06C46.3388 -1.76841e-06 40.0795 -5.51922e-07 28.2777 0.276082C11.8344 0.659035 0 5.19213 0 15.7738C0 25.9814 14.6769 33.6108 21.7482 41.2625C25.7247 44.9807 27.9838 49.4826 28.5686 52C29.9728 50.44 32.0196 47.7385 31.8296 44.2281C31.5565 39.2156 27.8814 34.7166 18.9532 27.0457C11.2882 20.4583 9.8603 17.8682 9.65992 14.6353C8.93558 3.01167 30.8441 1.8361 30.8441 1.8361C30.8441 1.8361 12.0838 4.1635 12.676 13.3217C12.9922 18.1858 17.2314 21.4706 24.7613 27.1689C35.9427 35.6295 35.3727 41.8384 35.3727 41.8384C35.3727 41.8384 38.8994 37.0515 37.6452 31.4155C35.8536 23.3468 22.2098 18.6103 22.2098 12.2575Z" fill="#D3D800"/>
</svg>
