<?xml version="1.0"?>
<svg xmlns="http://www.w3.org/2000/svg" xmlns:xlink="http://www.w3.org/1999/xlink" xmlns:svgjs="http://svgjs.com/svgjs" version="1.1" width="512" height="512" x="0" y="0" viewBox="0 0 512 512" style="enable-background:new 0 0 512 512" xml:space="preserve" class=""><g>
<g xmlns="http://www.w3.org/2000/svg">
	<g>
		<path d="M437.02,74.98C388.667,26.629,324.38,0,256,0S123.333,26.629,74.98,74.98C26.628,123.332,0,187.62,0,256    s26.629,132.667,74.98,181.02C123.332,485.372,187.62,512,256,512s132.667-26.629,181.02-74.98    C485.372,388.668,512,324.38,512,256S485.371,123.333,437.02,74.98z M256,482.462C131.129,482.462,29.538,380.871,29.538,256    S131.129,29.538,256,29.538S482.462,131.129,482.462,256S380.871,482.462,256,482.462z" fill="#a8a8b3" data-original="#000000" style="" class=""/>
	</g>
</g>
<g xmlns="http://www.w3.org/2000/svg">
	<g>
		<path d="M392.913,121.54c-0.355-0.45-0.733-0.889-1.148-1.305c-0.416-0.416-0.855-0.793-1.305-1.148    C355.796,85.038,308.312,64,256,64c-52.313,0-99.797,21.039-134.461,55.088c-0.45,0.355-0.888,0.733-1.304,1.147    c-0.416,0.415-0.793,0.855-1.148,1.305C85.038,156.204,64,203.688,64,256c0,51.286,19.971,99.5,56.235,135.764c0,0,0,0,0,0.001    c0,0.001,0.001,0.001,0.001,0.002c2.884,2.884,6.664,4.325,10.443,4.325s7.56-1.442,10.443-4.326    c0.011-0.011,0.021-0.024,0.031-0.035l48.702-48.702c5.768-5.768,5.768-15.119,0-20.887c-5.767-5.768-15.119-5.768-20.887,0    l-37.819,37.819c-21.203-25.376-33.993-56.253-36.943-89.191h53.485c8.157,0,14.769-6.613,14.769-14.769    s-6.613-14.769-14.769-14.769H94.217c3.054-33.723,16.45-64.504,36.993-89.134l37.762,37.762    c2.884,2.884,6.664,4.326,10.443,4.326s7.56-1.443,10.443-4.326c5.768-5.767,5.768-15.119,0-20.887l-37.762-37.762    c24.631-20.543,55.412-33.939,89.135-36.993v53.475c0,8.157,6.613,14.769,14.769,14.769s14.769-6.613,14.769-14.769V94.217    c33.723,3.054,64.504,16.45,89.134,36.993l-37.762,37.762c-5.768,5.768-5.768,15.119,0,20.887    c2.884,2.884,6.664,4.326,10.443,4.326s7.56-1.441,10.443-4.326l37.762-37.762c20.543,24.63,33.939,55.411,36.993,89.134h-53.474    c-8.157,0-14.769,6.613-14.769,14.769s6.613,14.769,14.769,14.769h53.485c-2.949,32.938-15.739,63.816-36.945,89.192    l-37.819-37.82c-5.767-5.767-15.119-5.768-20.887,0c-5.768,5.767-5.768,15.119,0,20.887l48.735,48.736    c0.36,0.36,0.735,0.698,1.122,1.014c5.8,4.732,14.359,4.393,19.765-1.014C428.029,355.5,448,307.285,448,256    C448,203.688,426.962,156.204,392.913,121.54z" fill="#a8a8b3" data-original="#000000" style="" class=""/>
	</g>
</g>
<g xmlns="http://www.w3.org/2000/svg">
	<g>
		<path d="M293.79,302.792L270.44,193.828c-1.458-6.81-7.476-11.675-14.44-11.675s-12.982,4.865-14.441,11.675l-23.349,108.963    c-2.458,11.467,0.361,23.275,7.734,32.395c7.374,9.121,18.329,14.352,30.056,14.352c11.728,0,22.683-5.231,30.055-14.352    S296.248,314.259,293.79,302.792z M263.084,316.617C262.062,317.88,259.785,320,256,320s-6.063-2.119-7.084-3.383    c-1.021-1.264-2.617-3.935-1.824-7.636L256,267.412l8.908,41.569C265.701,312.682,264.106,315.354,263.084,316.617z" fill="#a8a8b3" data-original="#000000" style="" class=""/>
	</g>
</g>
<g xmlns="http://www.w3.org/2000/svg">
	<g>
		<path d="M256,359.385c-24.431,0-44.308,19.876-44.308,44.308C211.692,428.124,231.569,448,256,448s44.308-19.876,44.308-44.308    C300.308,379.261,280.431,359.385,256,359.385z M256,418.462c-8.144,0-14.769-6.625-14.769-14.769s6.625-14.769,14.769-14.769    s14.769,6.625,14.769,14.769S264.144,418.462,256,418.462z" fill="#a8a8b3" data-original="#000000" style="" class=""/>
	</g>
</g>
<g xmlns="http://www.w3.org/2000/svg">
</g>
<g xmlns="http://www.w3.org/2000/svg">
</g>
<g xmlns="http://www.w3.org/2000/svg">
</g>
<g xmlns="http://www.w3.org/2000/svg">
</g>
<g xmlns="http://www.w3.org/2000/svg">
</g>
<g xmlns="http://www.w3.org/2000/svg">
</g>
<g xmlns="http://www.w3.org/2000/svg">
</g>
<g xmlns="http://www.w3.org/2000/svg">
</g>
<g xmlns="http://www.w3.org/2000/svg">
</g>
<g xmlns="http://www.w3.org/2000/svg">
</g>
<g xmlns="http://www.w3.org/2000/svg">
</g>
<g xmlns="http://www.w3.org/2000/svg">
</g>
<g xmlns="http://www.w3.org/2000/svg">
</g>
<g xmlns="http://www.w3.org/2000/svg">
</g>
<g xmlns="http://www.w3.org/2000/svg">
</g>
</g></svg>
